<?xml version="1.0" encoding="utf-8"?>
<svg id="master-artboard" viewBox="0 0 1404.7818603515625 211.07569885253906" version="1.1" xmlns="http://www.w3.org/2000/svg" x="0px" y="0px" style="enable-background:new 0 0 336 235.2;" width="1404.7818603515625px" height="211.07569885253906px"><rect id="ee-background" x="0" y="0" width="1404.7818603515625" height="211.07569885253906" style="fill: rgb(110, 58, 156); fill-opacity: 0; pointer-events: none;"/><g transform="matrix(1.8152871131896973, 0, 0, 1.8152871131896973, 7.460378646850586, 266.7289581298828)"><path d="M 647.4022827148438 299 L 630.88232421875 299 L 630.88232421875 201.13999938964844 L 656.642333984375 201.13999938964844 L 686.1823120117188 262.6000061035156 L 715.7222900390625 201.13999938964844 L 741.34228515625 201.13999938964844 L 741.34228515625 299 L 724.8223266601562 299 L 724.8223266601562 222.55999755859375 L 690.6622924804688 290.4599914550781 L 681.4223022460938 290.4599914550781 L 647.4022827148438 222.55999755859375 L 647.4022827148438 299 ZM 784.9761962890625 276.739990234375 L 775.1762084960938 299 L 757.5361938476562 299 L 800.6561889648438 201.13999938964844 L 818.2962036132812 201.13999938964844 L 861.4161987304688 299 L 843.7761840820312 299 L 833.9761962890625 276.739990234375 L 784.9761962890625 276.739990234375 M 827.2562255859375 261.4800109863281 L 809.4761962890625 221.16000366210938 L 791.6961669921875 261.4800109863281 L 827.2562255859375 261.4800109863281 ZM 945.3778076171875 251.39999389648438 L 961.8978271484375 251.39999389648438 L 961.8978271484375 284.8599853515625 C 952.6578369140625 295.0333251953125 939.451171875 300.1199951171875 922.27783203125 300.1199951171875 C 907.8111572265625 300.1199951171875 895.701171875 295.3599853515625 885.9478149414062 285.8399963378906 C 876.1945190429688 276.32000732421875 871.31787109375 264.2799987792969 871.31787109375 249.72000122070312 C 871.31787109375 235.16000366210938 876.287841796875 223.02667236328125 886.2278442382812 213.32000732421875 C 896.1678466796875 203.61334228515625 908.1845092773438 198.760009765625 922.27783203125 198.760009765625 C 936.3711547851562 198.760009765625 948.0845336914062 202.86666870117188 957.4178466796875 211.0800018310547 L 948.5978393554688 223.67999267578125 C 944.7711791992188 220.413330078125 940.921142578125 218.14999389648438 937.0478515625 216.88999938964844 C 933.1744995117188 215.6300048828125 928.671142578125 215 923.537841796875 215 C 913.64453125 215 905.3378295898438 218.1966552734375 898.6178588867188 224.58999633789062 C 891.8978271484375 230.98333740234375 888.537841796875 239.38333129882812 888.537841796875 249.79000854492188 C 888.537841796875 260.1966552734375 891.8045043945312 268.54998779296875 898.3378295898438 274.8500061035156 C 904.8711547851562 281.1499938964844 912.7811889648438 284.29998779296875 922.06787109375 284.29998779296875 C 931.3544921875 284.29998779296875 939.12451171875 282.2933349609375 945.3778076171875 278.2799987792969 L 945.3778076171875 251.39999389648438 ZM 986.2277221679688 201.13999938964844 L 1002.7476806640625 201.13999938964844 L 1002.7476806640625 299 L 986.2277221679688 299 L 986.2277221679688 201.13999938964844 ZM 1077.20166015625 284.0199890136719 C 1082.8948974609375 284.0199890136719 1087.794921875 283.0633239746094 1091.901611328125 281.1499938964844 C 1096.00830078125 279.2366638183594 1100.3016357421875 276.17999267578125 1104.7816162109375 271.9800109863281 L 1115.421630859375 282.8999938964844 C 1105.0616455078125 294.3800048828125 1092.4849853515625 300.1199951171875 1077.691650390625 300.1199951171875 C 1062.8983154296875 300.1199951171875 1050.625 295.3599853515625 1040.87158203125 285.8399963378906 C 1031.1182861328125 276.32000732421875 1026.2415771484375 264.2799987792969 1026.2415771484375 249.72000122070312 C 1026.2415771484375 235.16000366210938 1031.211669921875 223.02667236328125 1041.151611328125 213.32000732421875 C 1051.091552734375 203.61334228515625 1063.6448974609375 198.760009765625 1078.8116455078125 198.760009765625 C 1093.978271484375 198.760009765625 1106.6483154296875 204.36000061035156 1116.8216552734375 215.55999755859375 L 1106.3216552734375 227.04000854492188 C 1101.6549072265625 222.55999755859375 1097.2449951171875 219.43333435058594 1093.091552734375 217.66000366210938 C 1088.938232421875 215.88665771484375 1084.0616455078125 215 1078.461669921875 215 C 1068.5682373046875 215 1060.2615966796875 218.1966552734375 1053.5416259765625 224.58999633789062 C 1046.8216552734375 230.98333740234375 1043.461669921875 239.14999389648438 1043.461669921875 249.08999633789062 C 1043.461669921875 259.0299987792969 1046.7982177734375 267.336669921875 1053.4715576171875 274.010009765625 C 1060.1448974609375 280.6833190917969 1068.054931640625 284.0199890136719 1077.20166015625 284.0199890136719 ZM 1138.204345703125 201.13999938964844 L 1154.724365234375 201.13999938964844 L 1154.724365234375 248.8800048828125 L 1199.5244140625 201.13999938964844 L 1220.5244140625 201.13999938964844 L 1181.1844482421875 243.97999572753906 L 1221.0843505859375 299 L 1201.484375 299 L 1169.00439453125 256.1600036621094 L 1154.724365234375 271.55999755859375 L 1154.724365234375 299 L 1138.204345703125 299 L 1138.204345703125 201.13999938964844 ZM 1272.978759765625 201.13999938964844 C 1290.525390625 201.13999938964844 1304.0120849609375 205.41000366210938 1313.438720703125 213.9499969482422 C 1322.8653564453125 222.489990234375 1327.5787353515625 234.36666870117188 1327.5787353515625 249.5800018310547 C 1327.5787353515625 264.7933349609375 1323.00537109375 276.8333435058594 1313.858642578125 285.70001220703125 C 1304.7120361328125 294.5666809082031 1290.7120361328125 299 1271.8587646484375 299 L 1239.378662109375 299 L 1239.378662109375 201.13999938964844 L 1272.978759765625 201.13999938964844 M 1310.918701171875 250 C 1310.918701171875 227.60000610351562 1298.0853271484375 216.39999389648438 1272.418701171875 216.39999389648438 L 1255.898681640625 216.39999389648438 L 1255.898681640625 283.4599914550781 L 1274.2386474609375 283.4599914550781 C 1286.092041015625 283.4599914550781 1295.168701171875 280.63665771484375 1301.46875 274.989990234375 C 1307.7686767578125 269.34332275390625 1310.918701171875 261.0133361816406 1310.918701171875 250 Z" transform="matrix(1.0899770259857178, 0, 0, 1.0899770259857178, -681.775634765625, -361.7122802734375)" style="fill: rgb(0, 0, 0); white-space: pre; color: rgb(0, 0, 0);"/></g></svg>